<svg xmlns="http://www.w3.org/2000/svg" viewBox="0 0 600 102"><style type="text/css">  
	.st0{fill:#fff200;}
</style><path class="st0" d="M1.5 85l8.7-83.2h47.9L49.3 85H34.6l7.7-72.6H23.8L16.2 85H1.5z"/><path class="st0" d="M61.8 85l8.7-83.2h23.5c7.3 0 12.5 2 15.5 6 2.4 3.1 3.5 7.4 3.5 12.8 0 1.5-0.1 3.1-0.3 4.8 -0.8 7.6-3.3 13.2-7.6 16.8 -4.2 3.6-9.8 5.4-16.8 5.4h-7.9L76.7 85 61.8 85 61.8 85zM81.7 37.2h4.8c4.4 0 7.4-0.8 9.2-2.5 1.7-1.7 2.8-4.8 3.3-9.4 0.2-1.9 0.4-3.5 0.4-5 0-1-0.1-1.9-0.2-2.6 -0.3-1.9-1.2-3.3-2.7-4.1 -1.5-0.8-3.9-1.2-7.3-1.2h-4.9L81.7 37.2z"/><path class="st0" d="M136.9 86c-4.4 0-8-0.6-11-1.9 -3-1.2-5.2-3.1-6.8-5.5 -1.6-2.4-2.6-5.3-3.1-8.6 -0.3-1.7-0.4-3.5-0.4-5.5 0-1.9 0.1-3.9 0.4-6l3.3-30.8c0.9-8.9 3.4-15.6 7.6-20.2 4.2-4.6 10.5-6.8 19.1-6.8 8.5 0 14.4 2.3 17.6 6.9 2.5 3.5 3.7 8.4 3.7 14.5 0 1.8-0.1 3.6-0.3 5.6l-3.3 30.8c-0.9 8.9-3.5 15.7-7.7 20.4C151.7 83.7 145.4 86 136.9 86zM138.1 75c1.5 0 2.8-0.2 4-0.7 1.1-0.5 2.1-1 2.8-1.7 0.7-0.7 1.3-1.6 1.8-2.8 0.5-1.2 0.9-2.3 1.1-3.5 0.3-1.2 0.5-2.6 0.6-4.2l3.9-37.5c0.1-1.5 0.2-2.9 0.2-4.2 0-0.8 0-1.6-0.1-2.4 -0.1-1.9-0.8-3.4-2.1-4.4 -1.2-1.1-3.1-1.6-5.5-1.6 -1.9 0-3.4 0.3-4.7 0.9 -1.3 0.6-2.3 1.5-3 2.7 -0.7 1.2-1.3 2.5-1.6 3.9 -0.4 1.4-0.6 3.1-0.8 5.1L130.7 62c-0.1 1.6-0.2 3.1-0.2 4.4 0 0.7 0 1.5 0 2.2 0.1 1.9 0.8 3.5 2 4.6C133.8 74.4 135.6 75 138.1 75z"/><path class="st0" d="M172.2 85l8.7-83.2h20.3c3.8 0 7.2 0.4 9.9 1.1 2.8 0.7 5.2 1.9 7.2 3.5 2.1 1.5 3.5 3.7 4.3 6.5 0.5 1.8 0.8 3.9 0.8 6.2 0 1.2-0.1 2.5-0.3 3.9 -1.2 10.4-5.9 16.1-14.1 17.3 4.8 1 8.2 3.2 10.3 6.5 1.6 2.6 2.4 5.9 2.4 10.1 0 1.3-0.1 2.6-0.2 4.1 -0.8 7.8-3.3 13.8-7.7 17.9 -4.4 4.1-10.4 6.2-17.9 6.2L172.2 85 172.2 85zM188.2 74.5h5.7c3.1 0 5.7-0.5 7.5-1.5 1.9-1 3.3-2.5 4.2-4.4 0.9-1.9 1.5-4.5 1.9-7.8 0.1-1.1 0.2-2.2 0.2-3.2 0-3.4-0.7-6-2-7.8 -1.7-2.3-4.9-3.4-9.6-3.5h-4.9L188.2 74.5zM192.2 35.8h4.8c4.5 0 7.7-1 9.6-2.9 1.9-1.9 3.1-5.2 3.6-9.8 0.1-0.9 0.2-1.7 0.2-2.5 0-1.3-0.1-2.4-0.4-3.4 -0.4-1.5-1.2-2.6-2.5-3.3 -1.3-0.7-2.7-1.2-4.3-1.4 -1.6-0.2-3.7-0.3-6.5-0.3h-2.1L192.2 35.8z"/><path class="st0" d="M251.2 86c-4.4 0-8-0.6-11-1.9 -3-1.2-5.2-3.1-6.8-5.5 -1.6-2.4-2.6-5.3-3.1-8.6 -0.3-1.7-0.4-3.5-0.4-5.5 0-1.9 0.1-3.9 0.4-6l3.3-30.8c0.9-8.9 3.4-15.6 7.6-20.2 4.2-4.6 10.5-6.8 19.1-6.8s14.4 2.3 17.6 6.9c2.5 3.5 3.7 8.4 3.7 14.5 0 1.8-0.1 3.6-0.3 5.6L278 58.6c-0.9 8.9-3.5 15.7-7.7 20.4C266 83.7 259.7 86 251.2 86zM252.4 75c1.5 0 2.8-0.2 4-0.7 1.1-0.5 2.1-1 2.8-1.7 0.7-0.7 1.3-1.6 1.8-2.8 0.5-1.2 0.9-2.3 1.1-3.5 0.3-1.2 0.5-2.6 0.6-4.2l3.9-37.5c0.1-1.5 0.2-2.9 0.2-4.2 0-0.8 0-1.6-0.1-2.4 -0.1-1.9-0.8-3.4-2.1-4.4 -1.2-1.1-3.1-1.6-5.5-1.6 -1.9 0-3.4 0.3-4.7 0.9 -1.3 0.6-2.3 1.5-3 2.7 -0.7 1.2-1.3 2.5-1.6 3.9 -0.4 1.4-0.6 3.1-0.8 5.1L245 62c-0.1 1.6-0.2 3.1-0.2 4.4 0 0.7 0 1.5 0 2.2 0.1 1.9 0.8 3.5 2 4.6C248.1 74.4 249.9 75 252.4 75z"/><path class="st0" d="M286.5 85l8.7-83.2H310L306.4 37h3.1l17.2-35.2h14.7L321.7 41l12.4 44h-15l-10.5-38.9h-3.1L301.3 85H286.5z"/><path class="st0" d="M337.2 85l25.7-83.2h15.3l8.3 83.2h-13.9l-1.4-19.5h-14.6L351.1 85H337.2zM359.3 55.7h11.4l-2.1-34.4L359.3 55.7z"/><path class="st0" d="M440.3 101.4l0.2-16.4h-45.7l8.7-83.2h14.8l-7.6 72.9H430l7.7-72.9h14.8l-7.6 72.9h9.4l-2.8 26.7C451.5 101.4 440.3 101.4 440.3 101.4z"/><path class="st0" d="M461.9 85l8.7-83.2H483l-5.5 52.5 28.2-52.5h10.1L507.1 85h-12.5l5.6-53.5L471.9 85H461.9z"/><path class="st0" d="M514.6 85l20.8-37.2c-3.3-1.8-5.9-4.7-7.5-8.5 -1.3-2.8-1.9-6.1-1.9-9.8 0-1.3 0.1-2.6 0.2-4 0.8-8 3.7-14 8.5-17.9 4.8-3.9 11.9-5.9 21.4-5.9h18.5L565.8 85h-14.9l3.6-33.8h-4.7H548L530.9 85 514.6 85 514.6 85zM552.8 40.7h2.8l3-28.6h-3.1c-4.7 0-8.3 1.1-10.9 3.2 -2.5 2.2-4 5.5-4.5 10.1 -0.1 1.1-0.2 2.2-0.2 3.2 0 3.5 0.7 6.3 2.2 8.2C544.1 39.5 547.6 40.7 552.8 40.7z"/><path class="st0" d="M576.9 85l1.4-13.4h13.4L590.3 85H576.9zM583.2 65.9l2.5-64h13.7l-11.4 64H583.2z"/></svg>