<svg xmlns="http://www.w3.org/2000/svg" viewBox="0 0 300 300"><path d="M161.43,135.29v-.45c-.1.15-.2.3-.29.45Z" style="fill:#fff"/><path d="M274.4,3.25H26.5A21.24,21.24,0,0,0,5,24.22V275a21.24,21.24,0,0,0,21.5,21H274.4a21.24,21.24,0,0,0,21.5-21V24.22A21.24,21.24,0,0,0,274.4,3.25ZM93.18,248.31H49.24V116.12H93.18Zm-22-150.24h-.28c-14.75,0-24.28-10.15-24.28-22.83,0-13,9.82-22.84,24.85-22.84s24.29,9.86,24.57,22.84C96.07,87.92,86.53,98.07,71.21,98.07Zm180.4,150.24H207.68V177.59c0-17.77-6.36-29.89-22.26-29.89-12.14,0-19.37,8.18-22.54,16.07-1.16,2.82-1.45,6.77-1.45,10.72v73.82H117.49s.58-119.79,0-132.19h43.94v18.72c5.84-9,16.29-21.82,39.6-21.82,28.91,0,50.58,18.89,50.58,59.5Z" style="fill:#fff"/></svg>