<svg xmlns="http://www.w3.org/2000/svg" viewBox="0 0 600 102"><path d="M6.93,90.51l8.49-81H40.37q18.85,0,18.85,18.61,0,2.14-.24,4.59a33.9,33.9,0,0,1-2.76,10.62A18.18,18.18,0,0,1,50.8,50.3a22,22,0,0,1-7.42,3.64,34.68,34.68,0,0,1-9.21,1.12H26.85L23.09,90.51ZM28,43.78H33.2q5.61,0,7.78-2.46t2.81-8.77C44,31,44,29.54,44,28.3c0-.78,0-1.51-.1-2.19a5,5,0,0,0-2.2-3.89q-2-1.29-6.15-1.29H30.41Z" style="fill:#fff200"/><path d="M60.78,90.51l8.5-81H89.45a59,59,0,0,1,9,.61,25.64,25.64,0,0,1,7,2.13,14.15,14.15,0,0,1,5.08,3.9,14.47,14.47,0,0,1,2.73,6.16,20.7,20.7,0,0,1,.44,4.93c0,1.2-.06,2.46-.19,3.76a30.12,30.12,0,0,1-3.76,12.55A18.22,18.22,0,0,1,101.07,51l7.81,39.55H92.81L86.66,53.89H80.8L77,90.51ZM81.83,44h4q6.06,0,8.89-2.79t3.51-9.08c.1-1,.15-1.95.15-2.83a10.07,10.07,0,0,0-1.42-6q-2-2.73-7.71-2.78H84.32Z" style="fill:#fff200"/><path d="M140.13,91.58a29.62,29.62,0,0,1-11-1.78,14.47,14.47,0,0,1-6.83-5.32,20.06,20.06,0,0,1-3.13-8.33,35,35,0,0,1-.39-5.42,53.33,53.33,0,0,1,.34-5.85l3.18-29.94q1.36-13.12,7.57-19.77t19-6.64a29.89,29.89,0,0,1,11,1.76,14.83,14.83,0,0,1,6.88,5.22,21,21,0,0,1,3.13,8.3,39.06,39.06,0,0,1,.43,5.42,50.37,50.37,0,0,1-.34,5.71l-3.17,29.94Q165.43,78,159.15,84.77T140.13,91.58Zm1.22-11.71a8.51,8.51,0,0,0,4-.86,6,6,0,0,0,2.54-2.54A14.35,14.35,0,0,0,149.19,73a38.28,38.28,0,0,0,.7-4.3l4-37.64c.1-1.34.15-2.59.15-3.76,0-.59-.05-1.16-.05-1.71a5.52,5.52,0,0,0-1.66-3.93,6.46,6.46,0,0,0-4.64-1.49,8.93,8.93,0,0,0-4,.8,5.66,5.66,0,0,0-2.49,2.47,15,15,0,0,0-1.29,3.37,35.87,35.87,0,0,0-.71,4.25l-3.95,37.64c-.13,1.47-.2,2.83-.2,4.1,0,.53,0,1,0,1.47a5.76,5.76,0,0,0,1.64,4A6.2,6.2,0,0,0,141.35,79.87Z" style="fill:#fff200"/><path d="M186.66,90.51l-7.13-81H193.6l4,55.57,15-55.57h14.65l-24.27,81Z" style="fill:#fff200"/><path d="M248.77,91.58a29.56,29.56,0,0,1-11-1.78A14.45,14.45,0,0,1,231,84.48a20.06,20.06,0,0,1-3.13-8.33,35,35,0,0,1-.39-5.42,53.46,53.46,0,0,1,.35-5.85L231,34.94q1.37-13.12,7.57-19.77t19-6.64a29.85,29.85,0,0,1,11,1.76,14.83,14.83,0,0,1,6.88,5.22,20.67,20.67,0,0,1,3.13,8.3,40.59,40.59,0,0,1,.44,5.42,52.8,52.8,0,0,1-.34,5.71l-3.18,29.94Q274.06,78,267.79,84.77T248.77,91.58ZM250,79.87a8.51,8.51,0,0,0,4-.86,6,6,0,0,0,2.54-2.54A14.35,14.35,0,0,0,257.83,73a38,38,0,0,0,.71-4.3l3.95-37.64c.1-1.34.15-2.59.15-3.76,0-.59-.05-1.16-.05-1.71a5.52,5.52,0,0,0-1.66-3.93,6.46,6.46,0,0,0-4.64-1.49,8.85,8.85,0,0,0-4,.8,5.56,5.56,0,0,0-2.49,2.47,14.55,14.55,0,0,0-1.3,3.37,35.87,35.87,0,0,0-.71,4.25l-4,37.64c-.13,1.47-.2,2.83-.2,4.1,0,.53,0,1,.05,1.47a5.81,5.81,0,0,0,1.64,4A6.2,6.2,0,0,0,250,79.87Z" style="fill:#fff200"/><path d="M305.8,91.58a30.24,30.24,0,0,1-9.27-1.27,15.5,15.5,0,0,1-6.35-3.63,16.79,16.79,0,0,1-3.76-5.74,22.75,22.75,0,0,1-1.56-7.52c0-.85-.05-1.72-.05-2.64,0-2,.09-4.15.29-6.39l3-28.52a51.87,51.87,0,0,1,2.34-11.45,26.71,26.71,0,0,1,4.71-8.52A18.87,18.87,0,0,1,303,10.38a32.4,32.4,0,0,1,11.5-1.85,29.72,29.72,0,0,1,10.57,1.63A13.77,13.77,0,0,1,331.63,15a17.25,17.25,0,0,1,2.93,7.28,25.87,25.87,0,0,1,.34,5c0,1.46-.08,3-.24,4.69l-.78,7H318.21l.78-7.47c.09-1,.16-1.67.19-2s.07-.9.12-1.78a14.62,14.62,0,0,0,0-1.81c0-.33-.09-.84-.17-1.54a3.22,3.22,0,0,0-.42-1.46c-.19-.28-.44-.64-.73-1.08a2.34,2.34,0,0,0-1.07-.92,9.68,9.68,0,0,0-1.54-.49,8.48,8.48,0,0,0-2-.22,9.64,9.64,0,0,0-2.93.41,5.34,5.34,0,0,0-2.15,1.3,9.85,9.85,0,0,0-1.46,1.83,8.93,8.93,0,0,0-1,2.51c-.26,1-.46,2-.61,2.83s-.28,1.91-.41,3.18l-3.71,35.79a33.24,33.24,0,0,0-.25,3.91A12.71,12.71,0,0,0,301.7,77c.85,1.89,2.65,2.84,5.42,2.84a9,9,0,0,0,2.83-.4A4.48,4.48,0,0,0,312,78.16a11.3,11.3,0,0,0,1.35-1.81,9.41,9.41,0,0,0,.88-2.49c.24-1.07.42-2,.53-2.71s.24-1.77.37-3.1l.83-7.76h15.67L331,67.07a42.11,42.11,0,0,1-2.12,9.87,25.49,25.49,0,0,1-4.4,7.66,17.87,17.87,0,0,1-7.54,5.2A31.16,31.16,0,0,1,305.8,91.58Z" style="fill:#fff200"/><path d="M334.37,90.51l24.46-81h17.58l7.37,81h-15l-1.17-18.07h-13l-4.93,18.07Zm22.85-28.17h9.86l-1.51-32.43Z" style="fill:#fff200"/><path d="M397.11,90.51l7.28-69H391.3l1.27-11.92h42l-1.22,11.92H420.55l-7.28,69Z" style="fill:#fff200"/><path d="M433.05,90.51l8.49-81h16l-8.5,81Z" style="fill:#fff200"/><path d="M483.78,91.58a29.65,29.65,0,0,1-11-1.78A14.47,14.47,0,0,1,466,84.48a20.06,20.06,0,0,1-3.13-8.33,35,35,0,0,1-.39-5.42,53.46,53.46,0,0,1,.35-5.85L466,34.94q1.37-13.12,7.57-19.77t19-6.64a29.89,29.89,0,0,1,11,1.76,14.83,14.83,0,0,1,6.88,5.22,20.67,20.67,0,0,1,3.13,8.3,40.59,40.59,0,0,1,.44,5.42,52.8,52.8,0,0,1-.34,5.71l-3.18,29.94Q509.07,78,502.8,84.77T483.78,91.58ZM485,79.87a8.51,8.51,0,0,0,4-.86,6,6,0,0,0,2.54-2.54A14.35,14.35,0,0,0,492.84,73a38,38,0,0,0,.71-4.3l3.95-37.64c.1-1.34.15-2.59.15-3.76,0-.59,0-1.16,0-1.71a5.52,5.52,0,0,0-1.66-3.93,6.46,6.46,0,0,0-4.64-1.49,8.85,8.85,0,0,0-3.95.8,5.56,5.56,0,0,0-2.49,2.47,14.55,14.55,0,0,0-1.3,3.37,35.87,35.87,0,0,0-.71,4.25l-4,37.64c-.13,1.47-.2,2.83-.2,4.1,0,.53,0,1,.05,1.47a5.81,5.81,0,0,0,1.64,4A6.2,6.2,0,0,0,485,79.87Z" style="fill:#fff200"/><path d="M518.55,90.51l8.49-81h11.28l13.87,42.73,4.49-42.73h13.43l-8.5,81H550.87L537.1,45.15l-4.78,45.36Z" style="fill:#fff200"/><path d="M572.21,90.51l1.51-14.11h14.21l-1.51,14.11Zm6.64-19.58,2-61.23h14.8L584,70.93Z" style="fill:#fff200"/></svg>